<?xml version="1.0" standalone="no"?>
<!DOCTYPE svg PUBLIC "-//W3C//DTD SVG 20010904//EN"
 "http://www.w3.org/TR/2001/REC-SVG-20010904/DTD/svg10.dtd">
<svg version="1.0" xmlns="http://www.w3.org/2000/svg"
 width="256.000000pt" height="256.000000pt" viewBox="0 0 256.000000 256.000000"
 preserveAspectRatio="xMidYMid meet">

<g transform="translate(0.000000,256.000000) scale(0.100000,-0.100000)"
fill="#FFFFFF" stroke="none">
<path d="M1239 1982 c-70 -48 -205 -184 -271 -272 -23 -30 -54 -71 -68 -90
-20 -26 -99 -156 -125 -207 -2 -4 -40 -5 -189 -3 -90 1 -143 -3 -150 -10 -18
-18 -19 -205 -2 -335 30 -234 101 -376 232 -465 93 -65 233 -87 343 -54 48 14
59 14 121 0 88 -20 171 -20 267 0 70 14 81 14 139 -2 94 -25 184 -16 276 28
154 74 242 213 282 447 19 115 22 291 4 310 -11 11 -10 12 1 6 11 -7 13 -2 8
25 -4 18 -7 36 -7 40 0 11 -168 19 -254 11 -51 -4 -82 -3 -88 4 -5 5 -31 48
-58 93 -27 46 -75 118 -107 160 -68 91 -259 290 -301 314 -27 16 -30 16 -53 0z
m140 -200 c114 -122 175 -198 236 -292 50 -78 59 -100 42 -104 -170 -44 -275
-104 -350 -201 l-41 -53 -27 37 c-62 87 -187 166 -321 205 -65 19 -65 16 -11
108 65 112 326 408 359 408 7 0 58 -49 113 -108z m-653 -465 c3 -3 -2 -29 -11
-58 -19 -55 -25 -189 -13 -265 18 -111 87 -230 191 -327 l62 -59 -81 5 c-158
9 -258 94 -317 267 -34 101 -70 411 -51 441 7 12 208 9 220 -4z m1297 -117
c-3 -134 -24 -264 -55 -344 -43 -110 -128 -199 -221 -230 -53 -18 -167 -22
-167 -6 0 6 4 10 8 10 5 0 39 31 76 69 103 103 151 202 167 336 8 78 2 145
-26 257 -9 33 4 36 130 34 l90 -1 -2 -125z m-1076 79 c140 -45 245 -147 266
-256 6 -30 -7 -56 -50 -101 -61 -63 -100 -165 -89 -233 6 -39 5 -40 -16 -33
-56 17 -137 83 -189 154 -41 55 -78 161 -85 243 -7 75 7 186 28 233 13 28 26
28 135 -7z m772 -1 c62 -198 23 -383 -110 -520 -56 -58 -129 -108 -158 -108
-5 0 -6 15 -1 37 16 69 -15 150 -95 248 l-46 56 15 52 c34 114 126 191 296
248 77 25 87 24 99 -13z m-371 -472 c52 -103 9 -196 -91 -196 -45 0 -84 31
-98 80 -10 34 -9 46 10 92 12 29 38 70 57 91 l37 38 32 -31 c17 -17 42 -50 53
-74z"/>
</g>
</svg>
